<?xml version="1.0" standalone="no"?>
<!DOCTYPE svg PUBLIC "-//W3C//DTD SVG 20010904//EN"
 "http://www.w3.org/TR/2001/REC-SVG-20010904/DTD/svg10.dtd">
<svg version="1.0" xmlns="http://www.w3.org/2000/svg"
 width="128.000000pt" height="128.000000pt" viewBox="0 0 128.000000 128.000000"
 preserveAspectRatio="xMidYMid meet">

<g transform="translate(0.000000,128.000000) scale(0.100000,-0.100000)"
fill="#000000" stroke="none">
<path d="M680 1264 c-155 -17 -268 -51 -345 -104 -71 -49 -75 -64 -75 -259 l0
-169 -65 -38 c-39 -23 -65 -45 -65 -55 0 -9 18 -28 40 -43 38 -25 40 -29 41
-79 1 -28 0 -65 0 -82 -1 -16 10 -54 24 -82 14 -29 25 -56 25 -60 0 -5 -39
-23 -87 -42 -48 -19 -97 -44 -109 -56 -23 -23 -60 -145 -51 -169 6 -14 50 -16
375 -16 250 0 371 3 379 11 6 6 8 23 3 44 -9 41 -2 45 76 45 142 0 315 62 384
136 l40 44 0 392 c0 364 -1 395 -18 421 -42 63 -141 114 -273 141 -78 16 -240
27 -299 20z m323 -83 c134 -35 217 -94 217 -155 0 -29 -64 -82 -127 -106 -107
-40 -205 -53 -373 -48 -132 4 -167 9 -236 31 -88 29 -158 74 -169 107 -25 77
105 159 300 190 94 14 298 4 388 -19z m-563 -308 c92 -34 188 -47 330 -47 167
1 268 21 373 73 l77 39 0 -83 c0 -101 -13 -121 -103 -164 -91 -43 -203 -65
-338 -65 -109 -1 -118 0 -135 22 -11 12 -64 47 -119 77 -84 47 -106 55 -140
52 -22 -2 -48 -7 -57 -11 -16 -7 -18 0 -18 83 l0 91 38 -23 c20 -13 62 -33 92
-44z m56 -180 l91 -47 -35 -33 -35 -33 -129 0 -129 0 -33 33 -33 34 86 46 c47
26 95 47 106 47 11 0 61 -21 111 -47z m706 -173 c-27 -36 -123 -85 -211 -106
-79 -20 -337 -27 -392 -12 -32 9 -39 37 -30 123 l6 59 180 2 c205 1 290 18
399 77 l61 34 3 -76 c2 -61 -1 -80 -16 -101z m-682 32 c0 -13 -47 -32 -95 -39
-60 -8 -130 4 -157 27 -23 19 -22 19 115 20 75 0 137 -4 137 -8z m-255 -41 c3
-5 1 -12 -5 -16 -5 -3 -10 1 -10 9 0 18 6 21 15 7z m250 -52 c16 -34 16 -37
-11 -92 -68 -145 -173 -143 -233 6 -20 50 -21 58 -8 88 l14 34 111 0 111 0 16
-36z m690 -154 c-35 -67 -158 -117 -332 -136 l-111 -13 -29 30 c-25 27 -57 42
-195 93 l-26 10 20 41 c16 31 25 39 37 34 9 -4 79 -9 156 -11 198 -7 379 31
465 97 l25 19 3 -67 c2 -47 -1 -76 -13 -97z m-879 -119 c-17 -10 -36 -25 -42
-34 -9 -12 -13 -6 -23 33 -13 53 -14 51 18 63 18 6 29 3 51 -17 l27 -26 -31
-19z m187 18 c-5 -66 -9 -68 -52 -32 l-40 33 26 27 c19 20 30 25 47 18 17 -6
21 -15 19 -46z m-116 20 c-3 -3 -12 -4 -19 -1 -8 3 -5 6 6 6 11 1 17 -2 13 -5z
m296 -53 c4 -4 14 -31 22 -60 l13 -51 -139 0 -139 0 -10 26 c-12 29 -13 74 -3
74 4 0 21 -14 39 -31 30 -29 33 -30 42 -13 5 11 13 37 17 59 4 22 9 43 11 47
5 8 133 -37 147 -51z m-452 -6 c7 -31 16 -58 20 -61 5 -3 22 10 38 28 38 43
54 30 38 -30 l-11 -42 -134 0 -134 0 7 32 c13 63 28 81 85 104 30 13 60 23 67
24 6 0 17 -25 24 -55z m167 3 c-3 -7 -13 -13 -23 -13 -10 0 -20 6 -22 13 -3 7
5 12 22 12 17 0 25 -5 23 -12z m-5 -45 c2 -5 7 -20 11 -35 6 -27 5 -28 -29
-28 -19 0 -35 2 -35 4 0 1 5 17 11 35 10 29 32 41 42 24z"/>
<path d="M337 704 c-16 -16 -6 -62 18 -84 22 -21 27 -22 50 -10 26 14 39 45
33 77 -2 14 -14 19 -48 21 -25 2 -49 0 -53 -4z m83 -38 c0 -20 -27 -39 -45
-32 -8 3 -15 15 -15 26 0 16 7 20 30 20 19 0 30 -5 30 -14z"/>
</g>
</svg>
