<?xml version="1.0" standalone="no"?>
<!DOCTYPE svg PUBLIC "-//W3C//DTD SVG 20010904//EN"
 "http://www.w3.org/TR/2001/REC-SVG-20010904/DTD/svg10.dtd">
<svg version="1.0" xmlns="http://www.w3.org/2000/svg"
 width="128.000000pt" height="128.000000pt" viewBox="0 0 128.000000 128.000000"
 preserveAspectRatio="xMidYMid meet">

<g transform="translate(0.000000,128.000000) scale(0.100000,-0.100000)"
fill="#000000" stroke="none">
<path d="M323 1080 c-20 -8 -23 -16 -23 -70 l0 -60 340 0 340 0 0 60 c0 56 -2
61 -26 70 -32 13 -601 12 -631 0z m392 -60 c0 -18 -43 -26 -57 -12 -16 16 2
33 30 30 16 -2 27 -9 27 -18z m100 0 c0 -18 -33 -26 -47 -12 -6 6 -7 15 -3 22
10 16 50 8 50 -10z m110 0 c0 -18 -43 -26 -57 -12 -16 16 2 33 30 30 16 -2 27
-9 27 -18z"/>
<path d="M212 1002 c-9 -7 -12 -75 -10 -308 l3 -299 435 0 435 0 3 299 c2 313
2 315 -40 316 -15 0 -17 -24 -20 -256 l-3 -256 -28 -24 -28 -24 -318 0 c-307
0 -319 1 -345 21 l-26 20 0 260 0 259 -22 0 c-13 0 -29 -4 -36 -8z"/>
<path d="M302 708 l3 -213 335 0 335 0 3 213 2 212 -340 0 -340 0 2 -212z
m105 125 c6 -16 -45 -29 -59 -15 -6 6 -7 15 -3 22 9 14 57 9 62 -7z m528 -3
c0 -13 -34 -15 -234 -18 -228 -2 -272 3 -255 29 3 5 111 8 247 7 207 -3 242
-5 242 -18z m-510 -129 c3 -5 -6 -22 -19 -38 l-25 -28 26 -27 c23 -24 24 -28
9 -34 -18 -7 -76 39 -76 60 0 12 60 76 71 76 4 0 10 -4 14 -9z m136 -9 c47
-39 16 -122 -47 -122 -58 0 -89 92 -42 124 30 21 61 20 89 -2z m150 0 c31 -26
31 -78 0 -104 -49 -39 -111 -8 -111 56 0 59 63 86 111 48z m107 6 c23 -23 14
-59 -18 -71 -22 -8 -30 -18 -30 -35 0 -13 -4 -20 -10 -17 -5 3 -10 35 -10 71
0 63 0 64 28 64 15 0 33 -5 40 -12z m89 -20 c18 -18 33 -37 33 -43 0 -21 -58
-68 -76 -61 -15 6 -14 10 10 35 26 28 26 28 6 46 -19 17 -28 55 -13 55 4 0 22
-14 40 -32z"/>
<path d="M480 661 c-16 -31 4 -63 37 -59 55 7 55 69 0 76 -18 2 -29 -3 -37
-17z"/>
<path d="M630 661 c-16 -31 4 -63 37 -59 55 7 55 69 0 76 -18 2 -29 -3 -37
-17z"/>
<path d="M770 664 c0 -9 7 -14 17 -12 25 5 28 28 4 28 -12 0 -21 -6 -21 -16z"/>
<path d="M576 336 c-7 -28 -54 -49 -147 -66 -63 -11 -129 -43 -129 -61 0 -5
140 -9 340 -9 200 0 340 4 340 9 0 18 -66 50 -129 61 -93 17 -140 38 -147 66
-6 22 -11 24 -64 24 -53 0 -58 -2 -64 -24z"/>
</g>
</svg>
