<?xml version="1.0" standalone="no"?><svg xmlns="http://www.w3.org/2000/svg" viewBox="0 0 1440 320"><path fill="#FD50DA" fill-opacity="1" d="M0,128L16,144C32,160,64,192,96,208C128,224,160,224,192,229.3C224,235,256,245,288,234.7C320,224,352,192,384,181.3C416,171,448,181,480,186.7C512,192,544,192,576,192C608,192,640,192,672,176C704,160,736,128,768,133.3C800,139,832,181,864,181.3C896,181,928,139,960,138.7C992,139,1024,181,1056,213.3C1088,245,1120,267,1152,277.3C1184,288,1216,288,1248,277.3C1280,267,1312,245,1344,202.7C1376,160,1408,96,1424,64L1440,32L1440,320L1424,320C1408,320,1376,320,1344,320C1312,320,1280,320,1248,320C1216,320,1184,320,1152,320C1120,320,1088,320,1056,320C1024,320,992,320,960,320C928,320,896,320,864,320C832,320,800,320,768,320C736,320,704,320,672,320C640,320,608,320,576,320C544,320,512,320,480,320C448,320,416,320,384,320C352,320,320,320,288,320C256,320,224,320,192,320C160,320,128,320,96,320C64,320,32,320,16,320L0,320Z"></path></svg>