<?xml version="1.0" standalone="no"?>
<!DOCTYPE svg PUBLIC "-//W3C//DTD SVG 20010904//EN"
 "http://www.w3.org/TR/2001/REC-SVG-20010904/DTD/svg10.dtd">
<svg version="1.0" xmlns="http://www.w3.org/2000/svg"
 width="128.000000pt" height="128.000000pt" viewBox="0 0 128.000000 128.000000"
 preserveAspectRatio="xMidYMid meet">

<g transform="translate(0.000000,128.000000) scale(0.100000,-0.100000)"
fill="#000000" stroke="none">
<path d="M484 1260 c-70 -18 -155 -57 -221 -101 l-33 -21 0 51 c0 48 -2 51
-25 51 -25 0 -25 0 -25 -95 l0 -95 95 0 c94 0 95 0 95 24 0 23 -5 25 -47 28
l-48 3 55 33 c102 60 251 100 335 90 28 -3 34 0 38 19 2 12 2 25 -1 28 -12 12
-152 2 -218 -15z"/>
<path d="M750 1261 c0 -5 -3 -16 -6 -25 -4 -10 -1 -16 9 -16 14 0 27 20 27 41
0 5 -7 9 -15 9 -8 0 -15 -4 -15 -9z"/>
<path d="M835 1220 c-8 -26 -7 -26 27 -35 21 -5 27 -3 33 15 8 26 7 26 -27 35
-21 5 -27 3 -33 -15z"/>
<path d="M950 1171 c-13 -25 -13 -31 3 -31 14 0 39 35 30 44 -11 11 -22 6 -33
-13z"/>
<path d="M1050 1005 c0 -94 0 -95 24 -95 23 0 25 5 28 48 l3 47 33 -55 c60
-102 100 -251 90 -335 -3 -28 0 -34 19 -38 12 -2 25 -2 28 1 10 11 4 129 -10
197 -15 68 -62 178 -105 243 l-22 32 51 0 c48 0 51 2 51 25 0 25 0 25 -95 25
l-95 0 0 -95z"/>
<path d="M102 988 c-18 -18 -14 -36 9 -43 29 -10 54 24 30 42 -20 16 -24 16
-39 1z"/>
<path d="M50 891 c-14 -27 -13 -29 11 -42 17 -9 23 -8 30 2 14 22 10 38 -11
49 -15 8 -21 6 -30 -9z"/>
<path d="M320 790 c0 -113 1 -120 20 -120 16 0 20 -7 20 -30 0 -23 -4 -30 -20
-30 -19 0 -20 -7 -20 -120 l0 -120 320 0 320 0 0 120 c0 113 -1 120 -20 120
-16 0 -20 7 -20 30 0 23 4 30 20 30 19 0 20 7 20 120 l0 120 -320 0 -320 0 0
-120z m590 5 l0 -65 -270 0 -270 0 0 65 0 65 270 0 270 0 0 -65z m-50 -155 l0
-30 -225 0 -225 0 0 30 0 30 225 0 225 0 0 -30z m50 -155 l0 -65 -270 0 -270
0 0 65 0 65 270 0 270 0 0 -65z"/>
<path d="M430 795 c0 -21 5 -25 30 -25 25 0 30 4 30 25 0 21 -5 25 -30 25 -25
0 -30 -4 -30 -25z"/>
<path d="M550 795 c0 -20 5 -25 25 -25 20 0 25 5 25 25 0 20 -5 25 -25 25 -20
0 -25 -5 -25 -25z"/>
<path d="M670 795 c0 -20 5 -25 25 -25 20 0 25 5 25 25 0 20 -5 25 -25 25 -20
0 -25 -5 -25 -25z"/>
<path d="M790 795 c0 -20 5 -25 25 -25 20 0 25 5 25 25 0 20 -5 25 -25 25 -20
0 -25 -5 -25 -25z"/>
<path d="M430 485 c0 -21 5 -25 30 -25 25 0 30 4 30 25 0 21 -5 25 -30 25 -25
0 -30 -4 -30 -25z"/>
<path d="M550 485 c0 -20 5 -25 25 -25 20 0 25 5 25 25 0 20 -5 25 -25 25 -20
0 -25 -5 -25 -25z"/>
<path d="M670 485 c0 -20 5 -25 25 -25 20 0 25 5 25 25 0 20 -5 25 -25 25 -20
0 -25 -5 -25 -25z"/>
<path d="M790 485 c0 -20 5 -25 25 -25 20 0 25 5 25 25 0 20 -5 25 -25 25 -20
0 -25 -5 -25 -25z"/>
<path d="M15 779 c-8 -24 -7 -24 22 -33 16 -5 23 -2 28 13 3 12 3 25 0 31 -11
18 -43 11 -50 -11z"/>
<path d="M5 702 c-3 -3 -5 -35 -5 -72 0 -118 46 -257 122 -367 l29 -43 -46 0
c-43 0 -45 -1 -45 -30 l0 -30 95 0 95 0 0 95 c0 95 0 95 -25 95 -23 0 -25 -4
-25 -47 0 -45 -1 -46 -19 -29 -28 25 -86 141 -106 210 -10 33 -18 94 -19 137
-1 72 -3 78 -23 82 -13 2 -25 2 -28 -1z"/>
<path d="M1215 520 c-8 -25 -7 -25 22 -34 16 -5 23 -2 28 14 8 25 7 25 -22 34
-16 5 -23 2 -28 -14z"/>
<path d="M1185 419 c-7 -21 7 -39 32 -39 18 0 27 41 12 51 -23 14 -37 10 -44
-12z"/>
<path d="M1139 328 c-9 -18 -8 -24 6 -34 20 -15 30 -11 45 15 7 15 4 20 -15
29 -21 10 -26 8 -36 -10z"/>
<path d="M910 206 c0 -23 5 -25 48 -28 l47 -3 -55 -33 c-102 -60 -251 -100
-335 -90 -28 3 -34 0 -38 -19 -2 -12 -2 -25 1 -28 3 -3 35 -5 72 -5 115 0 253
45 368 121 l32 21 0 -51 c0 -48 2 -51 25 -51 25 0 25 0 25 95 l0 95 -95 0
c-94 0 -95 0 -95 -24z"/>
<path d="M290 139 c-9 -15 -8 -24 1 -35 15 -19 35 -18 43 2 9 24 8 28 -14 41
-17 11 -21 10 -30 -8z"/>
<path d="M382 84 c-10 -20 -8 -25 9 -34 23 -13 35 -7 42 19 3 13 -3 22 -18 29
-19 9 -24 7 -33 -14z"/>
<path d="M481 48 c-8 -23 4 -35 35 -37 18 -1 24 47 7 53 -25 10 -33 7 -42 -16z"/>
</g>
</svg>
