<?xml version="1.0" standalone="no"?>
<!DOCTYPE svg PUBLIC "-//W3C//DTD SVG 20010904//EN"
 "http://www.w3.org/TR/2001/REC-SVG-20010904/DTD/svg10.dtd">
<svg version="1.0" xmlns="http://www.w3.org/2000/svg"
 width="128.000000pt" height="128.000000pt" viewBox="0 0 128.000000 128.000000"
 preserveAspectRatio="xMidYMid meet">

<g transform="translate(0.000000,128.000000) scale(0.100000,-0.100000)"
fill="#000000" stroke="none">
<path d="M530 1170 l0 -110 45 0 45 0 0 -48 0 -48 -125 -73 -126 -72 -33 20
c-20 13 -50 21 -75 21 l-41 0 0 45 0 45 -110 0 -110 0 0 -110 0 -110 110 0
110 0 0 45 c0 45 0 45 34 45 19 0 48 -8 65 -17 l31 -18 0 -145 0 -145 -31 -17
c-17 -10 -46 -18 -65 -18 -34 0 -34 0 -34 45 l0 45 -110 0 -110 0 0 -110 0
-110 110 0 110 0 0 45 0 45 41 0 c25 0 55 8 75 21 l33 20 126 -72 125 -73 0
-48 0 -48 -45 0 -45 0 0 -110 0 -110 110 0 110 0 0 110 0 110 -45 0 -45 0 0
48 0 47 126 73 126 73 34 -21 c20 -11 53 -20 75 -20 l39 0 0 -45 0 -45 110 0
110 0 0 110 0 110 -110 0 -110 0 0 -45 c0 -45 0 -45 -34 -45 -19 0 -48 8 -65
18 l-31 17 0 145 0 145 31 18 c17 9 46 17 65 17 34 0 34 0 34 -45 l0 -45 110
0 110 0 0 110 0 110 -110 0 -110 0 0 -45 0 -45 -39 0 c-22 0 -55 -9 -75 -20
l-34 -21 -126 73 -126 73 0 47 0 48 45 0 45 0 0 110 0 110 -110 0 -110 0 0
-110z m180 0 l0 -70 -70 0 -70 0 0 70 0 70 70 0 70 0 0 -70z m49 -309 l112
-64 -108 -63 c-59 -35 -114 -64 -121 -64 -10 0 -210 109 -230 125 -4 3 222
133 229 131 3 0 56 -30 118 -65z m-579 -21 l0 -70 -70 0 -70 0 0 70 0 70 70 0
70 0 0 -70z m1060 0 l0 -70 -70 0 -70 0 0 70 0 70 70 0 70 0 0 -70z m-697
-167 l77 -45 0 -129 c0 -71 -3 -129 -6 -129 -4 0 -55 28 -115 62 l-109 62 0
134 0 134 38 -22 c20 -12 72 -42 115 -67z m347 -46 l0 -133 -109 -62 c-60 -34
-111 -62 -115 -62 -3 0 -6 58 -6 129 l0 129 113 66 c61 36 113 65 115 65 1 1
2 -59 2 -132z m-710 -187 l0 -70 -70 0 -70 0 0 70 0 70 70 0 70 0 0 -70z
m1060 0 l0 -70 -70 0 -70 0 0 70 0 70 70 0 70 0 0 -70z m-530 -330 l0 -70 -70
0 -70 0 0 70 0 70 70 0 70 0 0 -70z"/>
<path d="M200 1100 c0 -15 7 -20 25 -20 18 0 25 5 25 20 0 15 -7 20 -25 20
-18 0 -25 -5 -25 -20z"/>
<path d="M1030 1100 c0 -15 7 -20 25 -20 18 0 25 5 25 20 0 15 -7 20 -25 20
-18 0 -25 -5 -25 -20z"/>
<path d="M200 180 c0 -15 7 -20 25 -20 18 0 25 5 25 20 0 15 -7 20 -25 20 -18
0 -25 -5 -25 -20z"/>
<path d="M1030 180 c0 -15 7 -20 25 -20 18 0 25 5 25 20 0 15 -7 20 -25 20
-18 0 -25 -5 -25 -20z"/>
</g>
</svg>
